<?xml version="1.0" encoding="UTF-8"?>
<svg version="1.1" xmlns="http://www.w3.org/2000/svg" width="1254" height="1254">
<path d="M0 0 C413.82 0 827.64 0 1254 0 C1254 413.82 1254 827.64 1254 1254 C840.18 1254 426.36 1254 0 1254 C0 840.18 0 426.36 0 0 Z " fill="#020204" transform="translate(0,0)"/>
<path d="M0 0 C1.88796493 -0.00561211 3.77592639 -0.01251732 5.66388237 -0.02059597 C10.82765944 -0.03887394 15.99129024 -0.03855821 21.15509224 -0.03501284 C26.73410898 -0.03439887 32.31307954 -0.0509759 37.89207458 -0.06518555 C48.81461314 -0.09006681 59.73710312 -0.0983484 70.65966766 -0.10002268 C79.54411614 -0.1014503 88.42854866 -0.10762523 97.3129921 -0.11712456 C118.42992249 -0.13924161 139.54684315 -0.15770007 160.66378593 -0.15612888 C161.3384718 -0.15608215 162.01315766 -0.15603541 162.70828854 -0.15598726 C166.12743957 -0.15573796 169.5465906 -0.15544084 172.96574162 -0.15513314 C173.98421895 -0.15504338 173.98421895 -0.15504338 175.02327158 -0.15495182 C176.39634511 -0.1548305 177.76941863 -0.15470511 179.14249215 -0.15457564 C200.48609823 -0.15273903 221.82956111 -0.17523102 243.17312622 -0.21629333 C267.18594836 -0.26247257 291.19866296 -0.28814811 315.21154225 -0.28540367 C327.91288265 -0.28440999 340.61406161 -0.2925525 353.31536484 -0.32493782 C364.13319274 -0.35234485 374.95078606 -0.35870385 385.76863377 -0.33840955 C391.28033213 -0.32865894 396.79158124 -0.32827831 402.30323601 -0.3544693 C445.27790679 -0.54582463 445.27790679 -0.54582463 462.27957153 6.40113831 C463.06893467 6.71459257 463.8582978 7.02804683 464.67158103 7.35099971 C475.59688465 11.74311558 484.43712542 17.66106611 493.27957153 25.40113831 C494.30437622 26.27512268 494.30437622 26.27512268 495.34988403 27.16676331 C510.88405837 41.47265409 521.43546842 63.66286882 522.38015747 84.63404846 C523.255504 111.32131082 515.28250172 135.1348189 496.90457153 154.96363831 C496.03832153 155.76801331 495.17207153 156.57238831 494.27957153 157.40113831 C493.60796997 158.06629456 492.93636841 158.73145081 492.24441528 159.41676331 C476.67211639 174.3054003 454.63032265 182.73344332 433.11672974 182.67237854 C432.1430394 182.67760529 431.16934906 182.68283203 430.16615295 182.68821716 C428.06609507 182.69840339 425.96601232 182.70422811 423.86593056 182.70609856 C420.53015719 182.70978757 417.19467445 182.72658483 413.85896301 182.74685669 C404.37951084 182.80201649 394.9000163 182.83286567 385.42044067 182.85743713 C379.60684597 182.87340855 373.79345788 182.90372741 367.97997093 182.94220161 C365.77823281 182.95376771 363.5764576 182.95978122 361.3746891 182.95988274 C334.43600543 182.96157488 311.7583464 189.08851505 292.09597778 208.39723206 C274.42542914 226.69908852 267.60195982 249.58856294 267.79714966 274.52735901 C267.79495603 276.16242294 267.79094754 277.79748526 267.78529358 279.43254089 C267.77681549 282.91692097 267.78038756 286.40099087 267.79371643 289.885355 C267.81430515 295.41612153 267.80396749 300.94658556 267.78945923 306.47735596 C267.76060795 319.21716821 267.77111231 331.95688738 267.7821579 344.69671631 C267.79187836 356.37927224 267.79289163 368.0616659 267.76227713 379.74419469 C267.75119625 384.33225063 267.74830991 388.91999153 267.76542664 393.50803566 C267.89747946 429.76634772 267.89747946 429.76634772 263.27957153 446.40113831 C262.81673033 448.28770956 262.35431677 450.17438596 261.89285278 452.06129456 C261.47311827 453.53276656 261.03995433 455.0004883 260.59207153 456.46363831 C260.34569946 457.27252502 260.09932739 458.08141174 259.8454895 458.91481018 C251.19234575 486.04585715 233.81496271 510.14749078 210.96707153 527.15113831 C210.43646118 527.55010315 209.90585083 527.94906799 209.35916138 528.36012268 C194.17067014 539.24221447 176.57824433 546.89510848 159.90913939 555.2042141 C156.37253247 556.96806782 152.83808159 558.73623253 149.30332947 560.50379944 C143.38685971 563.46156934 137.46886398 566.4162665 131.54983521 569.36891174 C124.70971419 572.78106347 117.87173035 576.197467 111.0349161 579.61623907 C103.72798974 583.27003956 96.41954702 586.92079867 89.11064744 590.5706501 C87.01115338 591.61933232 84.91194354 592.66858161 82.81279564 593.71795654 C79.52466598 595.36151993 76.23552608 597.00304387 72.94558525 598.64297867 C71.16244586 599.53238893 69.38028183 600.42375381 67.59814453 601.31517029 C66.0111248 602.10548141 66.0111248 602.10548141 64.39204407 602.91175842 C63.47167453 603.37110527 62.55130499 603.83045212 61.60304546 604.30371857 C59.27957153 605.40113831 59.27957153 605.40113831 56.27957153 606.40113831 C56.82773033 600.84281919 58.89910427 596.62705545 61.40066528 591.73316956 C61.8194545 590.89887924 62.23824371 590.06458893 62.66972351 589.20501709 C64.01138387 586.53739003 65.36421505 583.87560158 66.71707153 581.21363831 C67.59211633 579.47505606 68.46647134 577.73612646 69.34011841 575.99684143 C74.07849253 566.58717612 78.91917719 557.23530302 83.84185791 547.92085266 C86.98830974 541.96633995 90.08242277 535.98869703 93.09207153 529.96363831 C93.55291138 529.04115295 94.01375122 528.1186676 94.48855591 527.16822815 C97.70456679 520.67787902 100.69212595 514.17087739 103.27957153 507.40113831 C103.53738403 506.75273987 103.79519653 506.10434143 104.06082153 505.43629456 C104.83875515 503.43649782 105.56394953 501.42414666 106.27957153 499.40113831 C106.67144653 498.31316956 107.06332153 497.22520081 107.46707153 496.10426331 C107.90019653 494.86160706 108.33332153 493.61895081 108.77957153 492.33863831 C109.18175903 491.19266174 109.58394653 490.04668518 109.99832153 488.86598206 C114.18286445 475.02959089 114.71345761 461.91084731 114.66775513 447.55738831 C114.67182836 445.39234656 114.67717444 443.2273069 114.6836853 441.06227112 C114.69727521 435.22344288 114.69209483 429.38477499 114.68254805 423.54594421 C114.67490807 417.41108291 114.68200904 411.27623457 114.68670654 405.14137268 C114.69215152 394.8425197 114.68500557 384.54373144 114.67068481 374.24488831 C114.65436079 362.36886661 114.65965018 350.49299947 114.67616403 338.61698151 C114.68981481 328.38721654 114.69168103 318.15749788 114.68384802 307.92772675 C114.67919123 301.83249379 114.67849149 295.73733329 114.68845749 289.6421051 C114.69717731 283.90948822 114.69101423 278.17706899 114.67377472 272.44447327 C114.66983653 270.35121487 114.67089765 268.2579396 114.67756271 266.16468811 C114.71922053 251.74254295 114.67289603 237.1019981 107.59207153 224.08863831 C107.24539429 223.42549622 106.89871704 222.76235413 106.54153442 222.07911682 C103.42582046 216.3038356 99.70432999 211.25031237 95.27957153 206.40113831 C94.75105591 205.78109924 94.22254028 205.16106018 93.67800903 204.52223206 C85.20605219 195.19473277 73.24778249 189.71003648 61.27957153 186.40113831 C60.39734924 186.15447922 59.51512695 185.90782013 58.60617065 185.65368652 C49.9027052 183.42561208 41.61903384 182.94476399 32.67019653 182.92457581 C31.20816658 182.91021496 29.74614984 182.89444916 28.28414917 182.87736511 C24.473751 182.83594289 20.66343476 182.81066869 16.85287476 182.78987122 C10.74293267 182.7537557 4.63319353 182.69253271 -1.47653961 182.63138199 C-3.59069294 182.61253588 -5.7047919 182.60063787 -7.81900024 182.58995056 C-32.83103516 182.39231666 -55.69814859 174.24771351 -73.72042847 156.40113831 C-83.46484686 145.85630927 -95.72042847 130.31840475 -95.72042847 115.40113831 C-96.38042847 115.40113831 -97.04042847 115.40113831 -97.72042847 115.40113831 C-103.27072074 91.76712329 -99.64977419 67.20258688 -87.87277222 46.08863831 C-76.49795967 28.15053557 -59.95449727 13.35021244 -39.72042847 6.40113831 C-38.99597534 6.13816956 -38.27152222 5.87520081 -37.52511597 5.60426331 C-35.27135858 4.81262092 -33.00338789 4.10416568 -30.72042847 3.40113831 C-29.52326102 3.01378678 -29.52326102 3.01378678 -28.30190837 2.61860996 C-18.86585783 -0.11468154 -9.73073941 -0.02754141 0 0 Z " fill="#F2EDE9" transform="translate(415.7204284667969,323.59886169433594)"/>
<path d="M0 0 C8.52845253 -0.04660414 17.05685071 -0.08201047 25.58539963 -0.10362434 C29.54672536 -0.11400461 33.50796314 -0.12805683 37.46923828 -0.15087891 C41.30126036 -0.17281492 45.13319854 -0.18461176 48.96527863 -0.18975449 C50.41790332 -0.19341338 51.8705241 -0.2005567 53.32311249 -0.21146011 C86.11298337 -0.44751043 121.83309977 12.04208206 145.84765625 34.953125 C147.78671231 36.7971638 149.7814475 38.51465919 151.8203125 40.24609375 C155.89288463 43.80141674 159.39553685 47.63089138 162.8125 51.8125 C163.710896 52.9106604 163.710896 52.9106604 164.62744141 54.03100586 C174.63913966 66.5476241 182.19981897 80.5408522 189 95 C189.32033203 95.66338379 189.64066406 96.32676758 189.97070312 97.01025391 C198.44509163 114.61187894 204.74365223 133.39413207 209.1640625 152.4140625 C210.36047192 157.54632348 211.77259478 162.61414992 213.16796875 167.6953125 C213.93976494 170.76075653 214.48031672 173.8819003 215 177 C215.33 145.32 215.66 113.64 216 81 C216.99 81 217.98 81 219 81 C219.09382421 101.90710201 219.16416456 122.81416885 219.20724869 143.72143936 C219.22779331 153.43106412 219.25575718 163.14055737 219.30175781 172.85009766 C219.34187556 181.3220189 219.36749151 189.79384481 219.37635398 198.26585841 C219.38152693 202.74351364 219.3935119 207.22089636 219.42292023 211.69846344 C219.64706549 247.18913262 219.64706549 247.18913262 215 264 C214.53737072 265.88662323 214.07501748 267.77331425 213.61328125 269.66015625 C213.19354674 271.13162826 212.76038279 272.59935 212.3125 274.0625 C211.94294189 275.27583008 211.94294189 275.27583008 211.56591797 276.51367188 C202.91277421 303.64471884 185.53539118 327.74635248 162.6875 344.75 C162.15688965 345.14896484 161.6262793 345.54792969 161.07958984 345.95898438 C145.89109861 356.84107616 128.29867279 364.49397017 111.62956786 372.80307579 C108.09296093 374.56692952 104.55851006 376.33509423 101.02375793 378.10266113 C95.10728818 381.06043104 89.18929244 384.01512819 83.27026367 386.96777344 C76.43014265 390.37992517 69.59215881 393.7963287 62.75534457 397.21510077 C55.44841821 400.86890125 48.13997549 404.51966037 40.83107591 408.1695118 C38.73158184 409.21819402 36.63237201 410.2674433 34.53322411 411.31681824 C31.24509444 412.96038163 27.95595454 414.60190556 24.66601372 416.24184036 C22.88287433 417.13125063 21.1007103 418.0226155 19.318573 418.91403198 C18.26055984 419.44090607 17.20254669 419.96778015 16.11247253 420.51062012 C15.19210299 420.96996696 14.27173346 421.42931381 13.32347393 421.90258026 C11 423 11 423 8 424 C8.54815879 418.44168088 10.61953273 414.22591714 13.12109375 409.33203125 C13.53988297 408.49774094 13.95867218 407.66345062 14.39015198 406.80387878 C15.73181234 404.13625173 17.08464352 401.47446327 18.4375 398.8125 C19.3125448 397.07391776 20.1868998 395.33498815 21.06054688 393.59570312 C25.798921 384.18603782 30.63960565 374.83416472 35.56228638 365.51971436 C38.70873821 359.56520164 41.80285124 353.58755872 44.8125 347.5625 C45.50375977 346.17877197 45.50375977 346.17877197 46.20898438 344.76708984 C49.42499525 338.27674072 52.41255442 331.76973908 55 325 C55.2578125 324.35160156 55.515625 323.70320313 55.78125 323.03515625 C56.55918361 321.03535951 57.284378 319.02300835 58 317 C58.391875 315.91203125 58.78375 314.8240625 59.1875 313.703125 C59.620625 312.46046875 60.05375 311.2178125 60.5 309.9375 C60.9021875 308.79152344 61.304375 307.64554688 61.71875 306.46484375 C65.90329292 292.62845259 66.43388608 279.50970901 66.38818359 265.15625 C66.39225683 262.99120826 66.3976029 260.8261686 66.40411377 258.66113281 C66.41770368 252.82230457 66.41252329 246.98363669 66.40297651 241.14480591 C66.39533654 235.00994461 66.4024375 228.87509626 66.40713501 222.74023438 C66.41257998 212.4413814 66.40543403 202.14259313 66.39111328 191.84375 C66.37478926 179.9677283 66.38007865 168.09186116 66.3965925 156.2158432 C66.41024328 145.98607824 66.4121095 135.75635958 66.40427649 125.52658844 C66.39961969 119.43135549 66.39891995 113.33619498 66.40888596 107.2409668 C66.41760577 101.50834992 66.4114427 95.77593068 66.39420319 90.04333496 C66.390265 87.95007657 66.39132611 85.85680129 66.39799118 83.7635498 C66.43964899 69.34140464 66.39332449 54.7008598 59.3125 41.6875 C58.96582275 41.02435791 58.61914551 40.36121582 58.26196289 39.67797852 C55.14624892 33.90269729 51.42475845 28.84917406 47 24 C46.47148437 23.37996094 45.94296875 22.75992188 45.3984375 22.12109375 C33.70940248 9.25163894 16.45783974 4.36264832 0 1 C0 0.67 0 0.34 0 0 Z " fill="#DED7D1" transform="translate(464,506)"/>
<path d="M0 0 C0.33 0 0.66 0 1 0 C1.02334486 17.28923207 1.04098699 34.57845922 1.05181217 51.86770344 C1.05697175 59.8951247 1.06400803 67.92253619 1.07543945 75.94995117 C1.0853966 82.94541801 1.09185589 89.94087775 1.09408849 96.93635148 C1.09539384 100.64149394 1.09846864 104.34661612 1.10573006 108.05175209 C1.11376437 112.18465709 1.11399047 116.31752668 1.11352539 120.45043945 C1.11712067 121.68330185 1.12071594 122.91616425 1.12442017 124.18638611 C1.1230455 125.30959259 1.12167084 126.43279907 1.12025452 127.59004211 C1.12117631 128.56806447 1.1220981 129.54608683 1.12304783 130.55374622 C1 133 1 133 0 136 C0 137.010625 0 138.02125 0 139.0625 C0 142 0 142 -1 144 C-1.19119928 146.0075924 -1.38055688 148.01573506 -1.5234375 150.02734375 C-2.10907062 152.45148085 -3.12968547 153.40473173 -5 155 C-4.39214597 146.26609735 -3.31858334 137.6540033 -2 129 C-1.67 129 -1.34 129 -1 129 C-0.67 86.43 -0.34 43.86 0 0 Z " fill="#ECE8E5" transform="translate(533,655)"/>
<path d="M0 0 C19.8 0 39.6 0 60 0 C60.495 0.99 60.495 0.99 61 2 C48.46 2 35.92 2 23 2 C23.95865509 4.33075929 23.95865509 4.33075929 27 6 C22.23837308 7.54079935 18.60142448 6.20961987 14.0625 4.625 C9.37721573 3.0326158 4.93093342 1.6636311 0 1 C0 0.67 0 0.34 0 0 Z " fill="#BBB2AA" transform="translate(464,506)"/>
<path d="M0 0 C0.60585938 0.19980469 1.21171875 0.39960937 1.8359375 0.60546875 C-12.92507801 8.48078238 -27.82056746 16.08713383 -42.76686668 23.60331535 C-46.32044316 25.39037498 -49.87137251 27.18231241 -53.41674805 28.9855957 C-56.90226598 30.75834683 -60.39345615 32.51939593 -63.88910103 34.272089 C-65.20807009 34.93584628 -66.52498542 35.60370152 -67.83973503 36.27577782 C-69.66085303 37.20568105 -71.49028729 38.11924367 -73.32006836 39.03198242 C-74.35530136 39.55475266 -75.39053436 40.07752289 -76.45713806 40.61613464 C-79.29523993 41.65341183 -80.4086284 41.71934466 -83.1640625 40.60546875 C-82.1740625 40.60546875 -81.1840625 40.60546875 -80.1640625 40.60546875 C-80.1640625 39.94546875 -80.1640625 39.28546875 -80.1640625 38.60546875 C-79.0296875 38.20714844 -77.8953125 37.80882812 -76.7265625 37.3984375 C-71.98614253 35.61869723 -67.61079135 33.32538347 -63.1640625 30.91796875 C-61.48765161 30.02347817 -59.81055649 29.13026889 -58.1328125 28.23828125 C-56.88371094 27.5736084 -56.88371094 27.5736084 -55.609375 26.89550781 C-28.52212457 12.60546875 -28.52212457 12.60546875 -24.1640625 12.60546875 C-24.1640625 11.94546875 -24.1640625 11.28546875 -24.1640625 10.60546875 C-22.1840625 10.27546875 -20.2040625 9.94546875 -18.1640625 9.60546875 C-18.1640625 8.94546875 -18.1640625 8.28546875 -18.1640625 7.60546875 C-17.51179687 7.363125 -16.85953125 7.12078125 -16.1875 6.87109375 C-10.21501055 4.60338322 -10.21501055 4.60338322 -4.7890625 1.29296875 C-2.1640625 -0.39453125 -2.1640625 -0.39453125 0 0 Z " fill="#F2F1EF" transform="translate(556.1640625,886.39453125)"/>
<path d="M0 0 C0.66 0.33 1.32 0.66 2 1 C-1.39728461 5.15612825 -4.72999141 8.70599337 -9 12 C-9.33 12.66 -9.66 13.32 -10 14 C-10.66 14 -11.32 14 -12 14 C-12.33 14.99 -12.66 15.98 -13 17 C-13.99 16.67 -14.98 16.34 -16 16 C-10.96679794 10.22494276 -5.96260189 4.82082706 0 0 Z " fill="#191918" transform="translate(718,522)"/>
<path d="M0 0 C0.33 0 0.66 0 1 0 C1.19532961 1.7699868 1.38098882 3.54104279 1.5625 5.3125 C1.66691406 6.29863281 1.77132812 7.28476562 1.87890625 8.30078125 C2 11 2 11 1 14 C0.01 14.495 0.01 14.495 -1 15 C-2.13102526 17.34038186 -2.13102526 17.34038186 -3.125 20.0625 C-3.47820313 20.98160156 -3.83140625 21.90070313 -4.1953125 22.84765625 C-4.46085938 23.55792969 -4.72640625 24.26820313 -5 25 C-6 23 -6 23 -5.0390625 19.8046875 C-4.57276447 18.49298327 -4.10111598 17.18317255 -3.625 15.875 C-1.7620974 10.56518881 -0.34482207 5.63209375 0 0 Z " fill="#2F2E2E" transform="translate(937,425)"/>
<path d="M0 0 C1.8125 0.1875 1.8125 0.1875 4 1 C6.14197494 3.90696599 7 5.35521088 7 9 C7.66 9 8.32 9 9 9 C8.67 9.99 8.34 10.98 8 12 C4.78119883 8.2064129 2.3836813 4.34170523 0 0 Z " fill="#C8C0BB" transform="translate(516,535)"/>
<path d="M0 0 C-0.33 0.99 -0.66 1.98 -1 3 C-1.9075 3.12375 -2.815 3.2475 -3.75 3.375 C-6.58970323 3.92109677 -8.52590591 4.57263803 -11 6 C-11.99 5.34 -12.98 4.68 -14 4 C-12.23141309 3.32739649 -10.46003984 2.66211605 -8.6875 2 C-7.70136719 1.62875 -6.71523438 1.2575 -5.69921875 0.875 C-3 0 -3 0 0 0 Z " fill="#262525" transform="translate(886,498)"/>
<path d="M0 0 C0.66 0.33 1.32 0.66 2 1 C0.88121617 2.17262904 -0.24523051 3.33795138 -1.375 4.5 C-2.00148438 5.1496875 -2.62796875 5.799375 -3.2734375 6.46875 C-5 8 -5 8 -7 8 C-7.66 9.32 -8.32 10.64 -9 12 C-9.99 11.34 -10.98 10.68 -12 10 C-11.38511719 9.52949219 -10.77023437 9.05898438 -10.13671875 8.57421875 C-9.32847656 7.95160156 -8.52023437 7.32898438 -7.6875 6.6875 C-6.88699219 6.07261719 -6.08648438 5.45773437 -5.26171875 4.82421875 C-3.37298626 3.30083693 -1.66922364 1.75565593 0 0 Z " fill="#242323" transform="translate(910,480)"/>
<path d="M0 0 C1.00186835 3.15696647 0.98848961 5.3910657 0.3125 8.625 C0.16425781 9.40101563 0.01601563 10.17703125 -0.13671875 10.9765625 C-1 13 -1 13 -3.08203125 14.2734375 C-3.71496094 14.51320313 -4.34789062 14.75296875 -5 15 C-3.33333333 10 -1.66666667 5 0 0 Z " fill="#C7C6C5" transform="translate(523,820)"/>
<path d="M0 0 C2.912575 0.08566397 4.56798024 0.57910955 6.66796875 2.625 C8.16091772 4.38391375 9.60436262 6.16313019 11 8 C7.24026115 8 6.54322371 7.03457593 3.8125 4.5625 C3.09707031 3.92441406 2.38164063 3.28632813 1.64453125 2.62890625 C1.10183594 2.09136719 0.55914063 1.55382812 0 1 C0 0.67 0 0.34 0 0 Z " fill="#E1DDD9" transform="translate(903,347)"/>
<path d="M0 0 C0.66 0.33 1.32 0.66 2 1 C-0.57404971 4.86107457 -2.61020259 4.94319692 -7 6 C-7.33 5.34 -7.66 4.68 -8 4 C-6.71349294 3.30289269 -5.42059335 2.61757124 -4.125 1.9375 C-3.40570313 1.55464844 -2.68640625 1.17179688 -1.9453125 0.77734375 C-1.30335938 0.52082031 -0.66140625 0.26429688 0 0 Z " fill="#2C2C2C" transform="translate(515,908)"/>
<path d="M0 0 C0.88492145 2.47778006 1.11637742 3.66056586 0.25 6.1875 C-1 8 -1 8 -4 9 C-2.94124926 5.59687262 -1.99097846 2.98646769 0 0 Z " fill="#C8C6C6" transform="translate(494,883)"/>
<path d="M0 0 C2 3 2 3 1.625 6.1875 C1.41875 7.115625 1.2125 8.04375 1 9 C0.01 9.33 -0.98 9.66 -2 10 C-1.34 6.7 -0.68 3.4 0 0 Z " fill="#D5CEC9" transform="translate(676,769)"/>
<path d="M0 0 C0.66 0.33 1.32 0.66 2 1 C1.43628586 4.26954202 0.50037734 5.82575883 -2 8 C-2.33 7.34 -2.66 6.68 -3 6 C-2.06553465 3.96855359 -1.06775224 1.96466413 0 0 Z " fill="#C7C6C6" transform="translate(498,874)"/>
<path d="M0 0 C1.98 0.66 3.96 1.32 6 2 C6 2.99 6 3.98 6 5 C3.08482708 3.92598892 1.22189824 3.22189824 -1 1 C-0.67 0.67 -0.34 0.34 0 0 Z " fill="#BFB6B1" transform="translate(492,513)"/>
<path d="M0 0 C0.33 0.66 0.66 1.32 1 2 C-1.3125 4.5 -1.3125 4.5 -4 7 C-4.99 7 -5.98 7 -7 7 C-4.69 4.69 -2.38 2.38 0 0 Z " fill="#E0DEDE" transform="translate(344,350)"/>
</svg>
